<svg xmlns="http://www.w3.org/2000/svg" xmlns:xlink="http://www.w3.org/1999/xlink" viewBox="0 0 144.32 50.15"><defs><style>.cls-1{fill:none;}.cls-2{clip-path:url(#clip-path);}.cls-3{fill:#e30613;fill-rule:evenodd;}.cls-4{fill:#1d1d1b;}</style><clipPath id="clip-path" transform="translate(-0.08 -0.27)"><rect class="cls-1" width="144.85" height="50.65"/></clipPath></defs><g id="Layer_2" data-name="Layer 2"><g id="Layer_1-2" data-name="Layer 1"><g class="cls-2"><path class="cls-3" d="M18.34,20l14.38.2L28.79,47.25H18.63l4-21.72H16.06ZM32.43,7.78c2.25.65,3.33,3.74,2.41,6.89s-3.48,5.19-5.72,4.54-3.33-3.74-2.41-6.89,3.48-5.19,5.72-4.54M32.9.27A38.94,38.94,0,0,0,16.38,47H4A38.88,38.88,0,0,1,13.94.27Z" transform="translate(-0.08 -0.27)"/><path class="cls-4" d="M142.26,36.83h2.14V47.4h-2.14Zm-7.1-2.67h1a2.28,2.28,0,0,1-.68,1.54,2.25,2.25,0,0,1-1.57.55,2.2,2.2,0,0,1-1.56-.55,2.33,2.33,0,0,1-.69-1.54h1a1.08,1.08,0,0,0,.36.77,1.34,1.34,0,0,0,.9.26,1.31,1.31,0,0,0,.9-.26,1.13,1.13,0,0,0,.37-.77m-1.36,9.36V41.73h4.6V46a5.74,5.74,0,0,1-1.94,1.14,7.07,7.07,0,0,1-2.58.49,5.8,5.8,0,0,1-2.89-.69,4.48,4.48,0,0,1-1.86-2,6.53,6.53,0,0,1-.62-2.82,6.14,6.14,0,0,1,.69-2.94,4.77,4.77,0,0,1,2-2,5.48,5.48,0,0,1,2.53-.52,5.06,5.06,0,0,1,3.08.82,3.76,3.76,0,0,1,1.43,2.29l-2.12.39a2.26,2.26,0,0,0-.85-1.23,2.53,2.53,0,0,0-1.54-.45,2.89,2.89,0,0,0-2.22.89,3.74,3.74,0,0,0-.83,2.63,4.14,4.14,0,0,0,.84,2.83,2.79,2.79,0,0,0,2.19.94,3.8,3.8,0,0,0,1.35-.26,4.92,4.92,0,0,0,1.16-.64V43.52Zm-11.05-6.69h2.14V47.4h-2.14ZM111.89,47.4V36.91H114v8.71h5.31V47.4Zm-12.66,0V36.83h2.08l4.33,7.06V36.83h2V47.4h-2.14l-4.27-6.89V47.4Zm-7-4.18-1.46-3.93L89.3,43.22Zm3.93,4.18H93.79L92.87,45H88.64l-.87,2.4H85.5l4.12-10.57h2.26ZM74,47.4V36.83h2.13v4.69l4.32-4.69H83.3l-4,4.12,4.2,6.45H80.75l-2.9-5-1.74,1.77V47.4ZM64,50.31v-.85c.5,0,1,.08,1.36.08a1.66,1.66,0,0,0,1-.23.55.55,0,0,0,.23-.45.52.52,0,0,0-.22-.42,1.09,1.09,0,0,0-.69-.18,3.17,3.17,0,0,0-1,.14l.19-.71a3.66,3.66,0,0,1,1.21-.2,2,2,0,0,1,1.37.4,1.2,1.2,0,0,1,.47,1,1.24,1.24,0,0,1-.52,1,3.2,3.2,0,0,1-2,.54A6.22,6.22,0,0,1,64,50.31M61.6,44l2.08-.2a2.48,2.48,0,0,0,.76,1.54,2.31,2.31,0,0,0,1.54.49,2.4,2.4,0,0,0,1.56-.44,1.29,1.29,0,0,0,.52-1,1,1,0,0,0-.22-.64,1.75,1.75,0,0,0-.77-.46c-.25-.08-.82-.24-1.71-.46A5.69,5.69,0,0,1,63,41.72a2.78,2.78,0,0,1-.51-3.64A2.9,2.9,0,0,1,63.76,37a5.38,5.38,0,0,1,2.08-.36,4.48,4.48,0,0,1,3,.87,3.11,3.11,0,0,1,1.06,2.33l-2.14.09a1.82,1.82,0,0,0-.59-1.17,2.13,2.13,0,0,0-1.35-.36,2.41,2.41,0,0,0-1.46.39.75.75,0,0,0-.34.65.8.8,0,0,0,.32.64,5.39,5.39,0,0,0,2,.71,10.82,10.82,0,0,1,2.31.76A3.17,3.17,0,0,1,69.69,46a3,3,0,0,1-1.43,1.17,5.9,5.9,0,0,1-2.3.39,4.62,4.62,0,0,1-3.08-.92A4,4,0,0,1,61.6,44m-6.48-.74-1.46-3.93-1.43,3.93Zm3.93,4.18H56.73L55.8,45H51.57l-.87,2.4H48.43l4.13-10.57h2.25ZM39,42.79v2.83h2a10.57,10.57,0,0,0,1.47-.06,1.36,1.36,0,0,0,.77-.42,1.32,1.32,0,0,0,.3-.9,1.41,1.41,0,0,0-.23-.81,1.31,1.31,0,0,0-.67-.49,7.29,7.29,0,0,0-1.89-.15Zm0-4.2V41h1.4c.83,0,1.34,0,1.55,0a1.46,1.46,0,0,0,.86-.38,1.12,1.12,0,0,0,.31-.83,1.17,1.17,0,0,0-.27-.8,1.28,1.28,0,0,0-.8-.37q-.31,0-1.83,0Zm-2.14-1.76h4.23a12.33,12.33,0,0,1,1.87.1,2.84,2.84,0,0,1,1.11.44,2.75,2.75,0,0,1,.81.88,2.46,2.46,0,0,1,.32,1.24,2.51,2.51,0,0,1-1.48,2.29,2.79,2.79,0,0,1,1.48,1,2.56,2.56,0,0,1,.52,1.6,3.16,3.16,0,0,1-.33,1.4,2.81,2.81,0,0,1-.92,1.09,3,3,0,0,1-1.43.5c-.36,0-1.22.06-2.58.07h-3.6ZM142.35,18.12h2V20h-2Zm-.08,2.53h2.13V31.22h-2.13Zm-10.34,7.13,2.08-.2a2.53,2.53,0,0,0,.76,1.54,2.82,2.82,0,0,0,3.1.05,1.3,1.3,0,0,0,.53-1,1,1,0,0,0-.22-.64,1.88,1.88,0,0,0-.77-.46c-.25-.08-.82-.24-1.71-.46a5.63,5.63,0,0,1-2.41-1.05,2.75,2.75,0,0,1-1-2.12,2.79,2.79,0,0,1,.46-1.52,3,3,0,0,1,1.32-1.07,5.42,5.42,0,0,1,2.08-.36,4.48,4.48,0,0,1,3,.87,3.07,3.07,0,0,1,1.06,2.33l-2.13.09a1.87,1.87,0,0,0-.59-1.17,2.15,2.15,0,0,0-1.36-.36,2.38,2.38,0,0,0-1.45.39.75.75,0,0,0-.34.65.79.79,0,0,0,.31.64,5.47,5.47,0,0,0,2,.71,10.69,10.69,0,0,1,2.3.76,3,3,0,0,1,1.17,1.08,3.15,3.15,0,0,1,.42,1.68A3.09,3.09,0,0,1,138.6,31a6.14,6.14,0,0,1-2.3.38,4.6,4.6,0,0,1-3.08-.92,4,4,0,0,1-1.29-2.71m-9.31,3.44V20.65h7.84v1.79h-5.71v2.34h5.31v1.78h-5.31v2.88h5.91v1.78Zm-8.53-6.1h1.58a8,8,0,0,0,1.92-.13,1.23,1.23,0,0,0,.6-.45,1.39,1.39,0,0,0,.21-.79,1.25,1.25,0,0,0-.28-.86,1.32,1.32,0,0,0-.81-.42q-.25,0-1.56,0h-1.66ZM112,31.22V20.65h4.5a7.69,7.69,0,0,1,2.46.28,2.47,2.47,0,0,1,1.23,1,3.06,3.06,0,0,1,.46,1.67,2.83,2.83,0,0,1-.7,2,3.34,3.34,0,0,1-2.09,1,5.37,5.37,0,0,1,1.14.89,11.93,11.93,0,0,1,1.22,1.72l1.29,2.06h-2.55l-1.55-2.3a15.34,15.34,0,0,0-1.12-1.55,1.57,1.57,0,0,0-.65-.44,3.43,3.43,0,0,0-1.07-.12h-.43v4.41ZM106.88,27l-1.46-3.93L104,27Zm3.93,4.18h-2.32l-.93-2.4h-4.23l-.87,2.4H100.2l4.12-10.57h2.26ZM92.73,22.44v7h1.59a5.61,5.61,0,0,0,1.29-.1,2,2,0,0,0,.87-.44,2.26,2.26,0,0,0,.56-1,7.09,7.09,0,0,0,.21-1.94A6.48,6.48,0,0,0,97,24.06a2.52,2.52,0,0,0-.61-1,2,2,0,0,0-1-.49,9.44,9.44,0,0,0-1.75-.1Zm-2.14-1.79H94.5a7.38,7.38,0,0,1,2,.2,3.54,3.54,0,0,1,1.59,1,4.57,4.57,0,0,1,1,1.71A7.87,7.87,0,0,1,99.46,26a6.84,6.84,0,0,1-.33,2.25A4.64,4.64,0,0,1,98,30.16a3.73,3.73,0,0,1-1.5.84,6.43,6.43,0,0,1-1.89.22h-4Zm-4.08-2.53h2V20h-2Zm-.08,2.53h2.13V31.22H86.43ZM73.51,25.12h1.58A7.91,7.91,0,0,0,77,25a1.19,1.19,0,0,0,.6-.45,1.39,1.39,0,0,0,.22-.79,1.26,1.26,0,0,0-.29-.86,1.32,1.32,0,0,0-.8-.42q-.27,0-1.56,0H73.51Zm-2.14,6.1V20.65h4.5a7.69,7.69,0,0,1,2.46.28,2.45,2.45,0,0,1,1.24,1A3.15,3.15,0,0,1,80,23.61a2.88,2.88,0,0,1-.7,2,3.4,3.4,0,0,1-2.1,1,5.2,5.2,0,0,1,1.15.89,12.94,12.94,0,0,1,1.21,1.72l1.3,2.06H78.33l-1.54-2.3a14.84,14.84,0,0,0-1.13-1.55,1.54,1.54,0,0,0-.64-.44,3.51,3.51,0,0,0-1.08-.12h-.43v4.41Zm-4.09-13.1h2V20h-2Zm-.08,2.53h2.13V31.22H67.2ZM58.29,31.22V20.73h2.14v8.71h5.31v1.78Zm-9.91,0V20.65h7.84v1.79H50.51v2.34h5.31v1.78H50.51v2.88h5.91v1.78ZM41.8,27.34V25.55h4.61v4.22a5.9,5.9,0,0,1-1.95,1.14,7.07,7.07,0,0,1-2.58.49A5.83,5.83,0,0,1,39,30.71a4.53,4.53,0,0,1-1.86-2,6.53,6.53,0,0,1-.62-2.82,6.14,6.14,0,0,1,.7-2.94,4.66,4.66,0,0,1,2-2,5.45,5.45,0,0,1,2.53-.52,5,5,0,0,1,3.07.82,3.71,3.71,0,0,1,1.43,2.29L44.15,24a2.25,2.25,0,0,0-.84-1.23,2.55,2.55,0,0,0-1.54-.45,2.9,2.9,0,0,0-2.23.89,3.74,3.74,0,0,0-.82,2.63,4.14,4.14,0,0,0,.83,2.83,2.79,2.79,0,0,0,2.2.94,3.79,3.79,0,0,0,1.34-.26,4.73,4.73,0,0,0,1.16-.64V27.34Z" transform="translate(-0.08 -0.27)"/></g></g></g></svg>