<svg id="katman_1" data-name="katman 1" xmlns="http://www.w3.org/2000/svg" xmlns:xlink="http://www.w3.org/1999/xlink" viewBox="100 -200 450 800"><defs><style>.cls-1{font-size:67.84px;fill:#096996;font-family:SegoeUI-Bold, Segoe UI;font-weight:700;}.cls-2{letter-spacing:-0.07em;}.cls-3,.cls-6{fill:#07a896;font-family:SegoeUI, Segoe UI;font-weight:400;}.cls-3{letter-spacing:0.19em;}.cls-4{letter-spacing:0.18em;}.cls-5{letter-spacing:0.19em;}.cls-6{letter-spacing:-0.03em;}.cls-7{letter-spacing:-0.01em;}.cls-8{fill:url(#linear-gradient);}.cls-9{fill:url(#Adsız_degrade_6);}.cls-10{fill:url(#linear-gradient-2);}.cls-11{fill:url(#Adsız_degrade_6-2);}.cls-12{fill:url(#linear-gradient-3);}.cls-13{fill:url(#Adsız_degrade_6-3);}.cls-14{opacity:0.42;fill:url(#Adsız_degrade_13);}</style><linearGradient id="linear-gradient" x1="14.19" y1="244.48" x2="214.96" y2="244.48" gradientUnits="userSpaceOnUse"><stop offset="0" stop-color="#3d0056"/><stop offset="1" stop-color="#ff0ba2"/></linearGradient><linearGradient id="Adsız_degrade_6" x1="81.8" y1="203.31" x2="183.76" y2="343.42" gradientUnits="userSpaceOnUse"><stop offset="0" stop-color="#096c9d"/><stop offset="1" stop-color="#4cd6bb"/></linearGradient><linearGradient id="linear-gradient-2" x1="118.27" y1="182.17" x2="324.17" y2="182.17" gradientUnits="userSpaceOnUse"><stop offset="0" stop-color="#8a0bff"/><stop offset="1" stop-color="#2a0056"/></linearGradient><linearGradient id="Adsız_degrade_6-2" x1="87.05" y1="123.38" x2="263.7" y2="229.15" xlink:href="#Adsız_degrade_6"/><linearGradient id="linear-gradient-3" x1="251.73" y1="363.78" x2="251.73" y2="27.32" gradientUnits="userSpaceOnUse"><stop offset="0" stop-color="#a553ff"/><stop offset="1" stop-color="#ae38ff"/></linearGradient><linearGradient id="Adsız_degrade_6-3" x1="236.36" y1="207.22" x2="374.19" y2="251.85" xlink:href="#Adsız_degrade_6"/><linearGradient id="Adsız_degrade_13" x1="146.02" y1="210.82" x2="328.7" y2="300.68" gradientUnits="userSpaceOnUse"><stop offset="0" stop-color="#3ec1b5"/><stop offset="1" stop-color="#3fc2b5"/></linearGradient></defs><text class="cls-1" transform="translate(351.75 144.59)">DİJİ<tspan class="cls-2" x="123.23" y="0">T</tspan><tspan x="158.25" y="0">AL</tspan><tspan class="cls-3"><tspan x="4.2" y="67.84">VE</tspan><tspan class="cls-4" x="106.44" y="67.84">R</tspan><tspan class="cls-5" x="158.95" y="67.84">Gİ</tspan></tspan><tspan class="cls-6"><tspan x="3.71" y="135.69">D</tspan><tspan class="cls-7" x="49.51" y="135.69">AİRESİ</tspan></tspan></text><path class="cls-8" d="M14.19,146l97.68,191a49.14,49.14,0,0,0,43.75,26.77H215l-122-238.59"/><path class="cls-9" d="M1.51,126.45,111.87,337a49.14,49.14,0,0,0,43.75,26.77H215l-122-238.59"/><path class="cls-10" d="M177.6.56H118.27l122,238.59-61,124.63h71.84A28.14,28.14,0,0,0,276.4,348l43-87.82a46.81,46.81,0,0,0-.37-41.9l-97.68-191A49.13,49.13,0,0,0,177.6.56Z"/><path class="cls-11" d="M177.6.56H118.27l122,238.59-61,124.63h71.84A28.14,28.14,0,0,0,276.4,348l43-87.82a46.81,46.81,0,0,0-.37-41.9l-97.68-191A49.13,49.13,0,0,0,177.6.56Z"/><path class="cls-12" d="M221.35,27.32c48.65,95.11,52.45,143.41,19,211.83l-61,124.63h71.84A28.14,28.14,0,0,0,276.4,348l43-87.82a46.81,46.81,0,0,0-.37-41.9Z"/><path class="cls-13" d="M221.35,27.32c48.65,95.11,52.45,143.41,19,211.83l-61,124.63h71.84A28.14,28.14,0,0,0,276.4,348l43-87.82a46.81,46.81,0,0,0-.37-41.9Z"/><path class="cls-14" d="M319,218.29l-27.56-53.88c1.89,30.87-5.58,59-21.61,91.76L217.18,363.78h33.95A28.14,28.14,0,0,0,276.4,348l43-87.82A46.81,46.81,0,0,0,319,218.29Z"/></svg>