<svg width="400" height="400" viewBox="0 0 400 400" fill="none" xmlns="http://www.w3.org/2000/svg">
<path d="M91.5222 125C91.3918 125 91.2615 125 91.1312 125.014V143.768C91.2615 143.754 91.3918 143.754 91.5222 143.754C122.542 143.754 147.798 168.995 147.798 200.03C147.798 231.049 122.556 256.305 91.5222 256.305C91.3918 256.305 91.2615 256.305 91.1312 256.291V275.045C91.2615 275.059 91.3918 275.059 91.5222 275.059C132.896 275.059 166.552 241.404 166.552 200.03C166.552 158.655 132.896 125 91.5222 125Z" fill="url(#paint0_linear_105_31)"/>
<path d="M91.5222 143.754C91.3918 143.754 147.798 147.446 91.5222 143.754C122.542 143.754 147.798 168.995 147.798 200.03C147.798 231.049 122.556 256.305 91.5222 256.305C91.3918 256.305 91.2615 256.305 91.1312 256.291V275.045C91.2615 275.059 91.3918 275.059 91.5222 275.059C132.896 275.059 159.235 243.842 159.235 202.468C159.235 167.452 124.527 138.788 91.5222 143.754Z" fill="url(#paint1_linear_105_31)"/>
<path d="M91.522 237.537C112.202 237.537 129.044 220.709 129.044 200.015C129.044 179.321 112.202 162.508 91.522 162.508C91.3917 162.508 91.2613 162.508 91.131 162.522V181.276C91.2613 181.261 91.3917 181.261 91.522 181.261C101.862 181.261 110.276 189.675 110.276 200.015C110.276 210.355 101.862 218.769 91.522 218.769C91.3917 218.769 91.2613 218.769 91.131 218.754C80.9649 218.552 72.7682 210.21 72.7682 200.001V125H54V200.03C54 213.729 61.3712 225.735 72.3628 232.28C77.8658 235.553 84.2812 237.479 91.1165 237.537C91.2613 237.537 91.3917 237.537 91.522 237.537Z" fill="url(#paint2_linear_105_31)"/>
<path d="M91.522 237.537C114.528 237.537 137.697 214.512 126.722 187.076C125.979 185.217 128.312 218.754 91.131 218.754C80.9649 218.552 72.7682 210.21 72.7682 200.001V125H54V200.03C54 213.729 61.3712 225.735 72.3628 232.28C77.8658 235.553 84.2812 237.479 91.1165 237.537C91.2613 237.537 91.3917 237.537 91.522 237.537Z" fill="url(#paint3_linear_105_31)"/>
<path d="M338.502 167.832L332.18 156.357H330.405V167.832H323V137.434H335.428C337.824 137.434 339.859 137.852 341.534 138.689C343.237 139.527 344.507 140.681 345.344 142.154C346.181 143.597 346.6 145.214 346.6 147.003C346.6 149.024 346.023 150.829 344.868 152.416C343.742 154.004 342.068 155.13 339.845 155.794L346.86 167.832H338.502ZM330.405 151.117H334.995C336.352 151.117 337.362 150.785 338.026 150.121C338.719 149.457 339.065 148.519 339.065 147.307C339.065 146.152 338.719 145.242 338.026 144.579C337.362 143.915 336.352 143.583 334.995 143.583H330.405V151.117Z" fill="#fff"/>
<path d="M305.678 143.366V149.515H315.595V155.231H305.678V161.9H316.894V167.832H298.273V137.434H316.894V143.366H305.678Z" fill="#fff"/>
<path d="M293.258 137.434V143.366H285.204V167.832H277.799V143.366H269.745V137.434H293.258Z" fill="#fff"/>
<path d="M266.199 137.434V143.366H253.815V149.775H263.081V155.534H253.815V167.832H246.41V137.434H266.199Z" fill="#fff"/>
<path d="M229.088 143.366V149.515H239.004V155.231H229.088V161.9H240.303V167.832H221.683V137.434H240.303V143.366H229.088Z" fill="#fff"/>
<path d="M200.311 137.434C203.515 137.434 206.315 138.069 208.711 139.339C211.108 140.609 212.955 142.399 214.254 144.708C215.582 146.989 216.246 149.63 216.246 152.633C216.246 155.606 215.582 158.248 214.254 160.557C212.955 162.867 211.093 164.657 208.668 165.927C206.272 167.197 203.486 167.832 200.311 167.832H188.922V137.434H200.311ZM199.834 161.423C202.635 161.423 204.814 160.658 206.373 159.128C207.932 157.598 208.711 155.433 208.711 152.633C208.711 149.833 207.932 147.653 206.373 146.094C204.814 144.535 202.635 143.756 199.834 143.756H196.327V161.423H199.834Z" fill="#fff"/>
<path d="M345.54 235.693V264.299H340.848V235.693H345.54ZM343.194 232.812C342.508 232.812 341.918 232.579 341.424 232.112C340.957 231.618 340.724 231.028 340.724 230.342C340.724 229.656 340.957 229.08 341.424 228.614C341.918 228.12 342.508 227.873 343.194 227.873C343.88 227.873 344.456 228.12 344.922 228.614C345.416 229.08 345.663 229.656 345.663 230.342C345.663 231.028 345.416 231.618 344.922 232.112C344.456 232.579 343.88 232.812 343.194 232.812Z" fill="#fff"/>
<path d="M333.034 235.693V264.299H328.342V244.707L319.616 264.299H316.365L307.598 244.707V264.299H302.906V235.693H307.968L318.011 258.125L328.013 235.693H333.034Z" fill="#fff"/>
<path d="M284.367 239.48V247.876H294.245V251.704H284.367V260.471H295.48V264.299H279.675V235.652H295.48V239.48H284.367Z" fill="#fff"/>
<path d="M273.277 235.693V239.521H265.662V264.299H260.97V239.521H253.314V235.693H273.277Z" fill="#fff"/>
<path d="M237.735 264.587C235.814 264.587 234.086 264.257 232.549 263.599C231.012 262.913 229.805 261.953 228.927 260.718C228.049 259.483 227.61 258.042 227.61 256.396H232.631C232.741 257.631 233.221 258.646 234.072 259.442C234.95 260.238 236.171 260.635 237.735 260.635C239.354 260.635 240.616 260.251 241.522 259.483C242.427 258.687 242.88 257.672 242.88 256.437C242.88 255.477 242.592 254.695 242.016 254.091C241.467 253.487 240.767 253.021 239.917 252.692C239.093 252.362 237.941 252.006 236.459 251.622C234.593 251.128 233.07 250.634 231.891 250.14C230.738 249.619 229.75 248.823 228.927 247.753C228.104 246.683 227.692 245.256 227.692 243.472C227.692 241.826 228.104 240.385 228.927 239.15C229.75 237.916 230.903 236.969 232.384 236.31C233.866 235.652 235.581 235.323 237.529 235.323C240.301 235.323 242.564 236.022 244.321 237.422C246.104 238.794 247.092 240.687 247.284 243.102H242.098C242.016 242.059 241.522 241.167 240.616 240.426C239.711 239.685 238.517 239.315 237.035 239.315C235.691 239.315 234.593 239.658 233.743 240.344C232.892 241.03 232.467 242.018 232.467 243.307C232.467 244.186 232.727 244.913 233.249 245.489C233.798 246.038 234.484 246.477 235.307 246.806C236.13 247.135 237.255 247.492 238.682 247.876C240.575 248.397 242.112 248.919 243.292 249.44C244.499 249.962 245.514 250.771 246.337 251.869C247.188 252.939 247.613 254.379 247.613 256.19C247.613 257.645 247.215 259.017 246.42 260.306C245.651 261.596 244.513 262.639 243.003 263.434C241.522 264.203 239.766 264.587 237.735 264.587Z" fill="#fff"/>
<path d="M220.503 235.693V264.299H215.811V235.693H220.503ZM218.157 232.812C217.471 232.812 216.881 232.579 216.387 232.112C215.921 231.618 215.687 231.028 215.687 230.342C215.687 229.656 215.921 229.08 216.387 228.614C216.881 228.12 217.471 227.873 218.157 227.873C218.843 227.873 219.419 228.12 219.886 228.614C220.379 229.08 220.626 229.656 220.626 230.342C220.626 231.028 220.379 231.618 219.886 232.112C219.419 232.579 218.843 232.812 218.157 232.812Z" fill="#fff"/>
<path d="M198.75 264.587C196.829 264.587 195.1 264.257 193.564 263.599C192.027 262.913 190.82 261.953 189.942 260.718C189.064 259.483 188.625 258.042 188.625 256.396H193.646C193.756 257.631 194.236 258.646 195.087 259.442C195.965 260.238 197.186 260.635 198.75 260.635C200.369 260.635 201.631 260.251 202.536 259.483C203.442 258.687 203.895 257.672 203.895 256.437C203.895 255.477 203.607 254.695 203.03 254.091C202.482 253.487 201.782 253.021 200.931 252.692C200.108 252.362 198.956 252.006 197.474 251.622C195.608 251.128 194.085 250.634 192.905 250.14C191.753 249.619 190.765 248.823 189.942 247.753C189.119 246.683 188.707 245.256 188.707 243.472C188.707 241.826 189.119 240.385 189.942 239.15C190.765 237.916 191.917 236.969 193.399 236.31C194.881 235.652 196.596 235.323 198.544 235.323C201.315 235.323 203.579 236.022 205.335 237.422C207.119 238.794 208.107 240.687 208.299 243.102H203.113C203.03 242.059 202.536 241.167 201.631 240.426C200.725 239.685 199.532 239.315 198.05 239.315C196.706 239.315 195.608 239.658 194.757 240.344C193.907 241.03 193.481 242.018 193.481 243.307C193.481 244.186 193.742 244.913 194.263 245.489C194.812 246.038 195.498 246.477 196.321 246.806C197.145 247.135 198.27 247.492 199.696 247.876C201.59 248.397 203.126 248.919 204.306 249.44C205.514 249.962 206.529 250.771 207.352 251.869C208.203 252.939 208.628 254.379 208.628 256.19C208.628 257.645 208.23 259.017 207.434 260.306C206.666 261.596 205.527 262.639 204.018 263.434C202.536 264.203 200.78 264.587 198.75 264.587Z" fill="#fff"/>
<path d="M346.692 215.422H339.654L327.882 197.6V215.422H320.844V186.529H327.882L339.654 204.433V186.529H346.692V215.422Z" fill="#fff"/>
<path d="M302.31 210.318H291.526L289.798 215.422H282.43L292.885 186.529H301.034L311.488 215.422H304.039L302.31 210.318ZM300.499 204.885L296.918 194.308L293.378 204.885H300.499Z" fill="#fff"/>
<path d="M275.314 186.529L265.312 205.873V215.422H258.274V205.873L248.272 186.529H256.257L261.855 198.629L267.411 186.529H275.314Z" fill="#fff"/>
<path d="M229.133 192.167V198.012H238.558V203.445H229.133V209.783H239.793V215.422H222.094V186.529H239.793V192.167H229.133Z" fill="#fff"/>
<path d="M206.282 200.605C207.956 200.962 209.3 201.799 210.316 203.116C211.331 204.405 211.838 205.887 211.838 207.561C211.838 209.975 210.988 211.896 209.287 213.323C207.613 214.722 205.267 215.422 202.248 215.422H188.789V186.529H201.796C204.732 186.529 207.023 187.201 208.669 188.545C210.343 189.89 211.18 191.715 211.18 194.019C211.18 195.721 210.727 197.134 209.822 198.259C208.944 199.384 207.764 200.166 206.282 200.605ZM195.828 198.218H200.437C201.59 198.218 202.468 197.971 203.072 197.477C203.703 196.955 204.018 196.201 204.018 195.213C204.018 194.225 203.703 193.471 203.072 192.949C202.468 192.428 201.59 192.167 200.437 192.167H195.828V198.218ZM201.014 209.742C202.194 209.742 203.099 209.482 203.73 208.96C204.389 208.411 204.718 207.629 204.718 206.614C204.718 205.599 204.375 204.803 203.689 204.227C203.03 203.651 202.111 203.363 200.931 203.363H195.828V209.742H201.014Z" fill="#fff"/>
<defs>
<linearGradient id="paint0_linear_105_31" x1="93.5551" y1="125.009" x2="141.111" y2="256.459" gradientUnits="userSpaceOnUse">
<stop stop-color="#fff"/>
<stop offset="1" stop-color="#fff"/>
</linearGradient>
<linearGradient id="paint1_linear_105_31" x1="129.649" y1="154.274" x2="112.09" y2="258.166" gradientUnits="userSpaceOnUse">
<stop stop-color="#fff"/>
<stop offset="1" stop-color="#fff"/>
</linearGradient>
<linearGradient id="paint2_linear_105_31" x1="91.604" y1="164.03" x2="114.528" y2="210.366" gradientUnits="userSpaceOnUse">
<stop stop-color="#fff"/>
<stop offset="1" stop-color="#fff"/>
</linearGradient>
<linearGradient id="paint3_linear_105_31" x1="54.0145" y1="125.029" x2="111.724" y2="231.218" gradientUnits="userSpaceOnUse">
<stop stop-color="#fff"/>
<stop offset="1" stop-color="#fff"/>
</linearGradient>
</defs>
</svg>
