<svg width="120" height="100" viewBox="0 0 120 100" fill="none" xmlns="http://www.w3.org/2000/svg">
<g clip-path="url(#clip0_404_2)">
<rect width="120" height="100" fill="white"/>
<path d="M17.1982 90.1152H12.6318C12.7048 91.1315 13.3451 91.6396 14.5527 91.6396C15.3229 91.6396 15.9997 91.4574 16.583 91.0928V92.6514C15.9359 92.9977 15.0951 93.1709 14.0605 93.1709C12.9303 93.1709 12.0531 92.8587 11.4287 92.2344C10.8044 91.6055 10.4922 90.7305 10.4922 89.6094C10.4922 88.4473 10.8294 87.5267 11.5039 86.8477C12.1784 86.1686 13.0078 85.8291 13.9922 85.8291C15.013 85.8291 15.8014 86.1322 16.3574 86.7383C16.918 87.3444 17.1982 88.167 17.1982 89.2061V90.1152ZM15.1953 88.7891C15.1953 87.7865 14.7897 87.2852 13.9785 87.2852C13.6322 87.2852 13.3314 87.4287 13.0762 87.7158C12.8255 88.0029 12.6729 88.3607 12.6182 88.7891H15.1953ZM22.291 90.0195H18.5518V88.5088H22.291V90.0195ZM24.3555 93V83.1973H27.9238C29.0176 83.1973 29.8584 83.3978 30.4463 83.7988C31.0342 84.1999 31.3281 84.765 31.3281 85.4941C31.3281 86.0228 31.1481 86.4854 30.7881 86.8818C30.4326 87.2783 29.9769 87.554 29.4209 87.709V87.7363C30.1182 87.8229 30.6742 88.0804 31.0889 88.5088C31.5081 88.9372 31.7178 89.459 31.7178 90.0742C31.7178 90.972 31.3965 91.6852 30.7539 92.2139C30.1113 92.738 29.234 93 28.1221 93H24.3555ZM26.5635 84.8242V87.1484H27.5342C27.9899 87.1484 28.3477 87.0391 28.6074 86.8203C28.8717 86.597 29.0039 86.2917 29.0039 85.9043C29.0039 85.1842 28.4661 84.8242 27.3906 84.8242H26.5635ZM26.5635 88.7891V91.373H27.7598C28.2702 91.373 28.6689 91.2546 28.9561 91.0176C29.2477 90.7806 29.3936 90.457 29.3936 90.0469C29.3936 89.6549 29.25 89.3473 28.9629 89.124C28.6803 88.9007 28.2839 88.7891 27.7734 88.7891H26.5635ZM39.2168 93H33.3379V83.1973H38.9912V84.9951H35.5459V87.1758H38.752V88.9668H35.5459V91.209H39.2168V93ZM48.1787 83.1973L44.9863 89.5137V93H42.7783V89.5547L39.668 83.1973H42.1904L43.7695 86.8545C43.7969 86.9229 43.8721 87.1895 43.9951 87.6543H44.0225C44.0817 87.3262 44.1523 87.0687 44.2344 86.8818L45.8408 83.1973H48.1787ZM56.8604 93H54.4541L53.7568 90.8193H50.2705L49.5801 93H47.1875L50.7559 83.1973H53.374L56.8604 93ZM53.251 89.124L52.1982 85.8291C52.1208 85.583 52.0661 85.2891 52.0342 84.9473H51.9795C51.9567 85.2344 51.8997 85.5192 51.8086 85.8018L50.7422 89.124H53.251ZM66.9023 93H64.6738L60.6338 86.8408C60.3968 86.4808 60.2327 86.2096 60.1416 86.0273H60.1143C60.1507 86.3737 60.1689 86.9023 60.1689 87.6133V93H58.084V83.1973H60.4629L64.3525 89.165C64.5303 89.4339 64.6943 89.7005 64.8447 89.9648H64.8721C64.8356 89.737 64.8174 89.2881 64.8174 88.6182V83.1973H66.9023V93ZM77.9629 93H75.7344L71.6943 86.8408C71.4574 86.4808 71.2933 86.2096 71.2021 86.0273H71.1748C71.2113 86.3737 71.2295 86.9023 71.2295 87.6133V93H69.1445V83.1973H71.5234L75.4131 89.165C75.5908 89.4339 75.7549 89.7005 75.9053 89.9648H75.9326C75.8962 89.737 75.8779 89.2881 75.8779 88.6182V83.1973H77.9629V93ZM88.8252 93H86.4189L85.7217 90.8193H82.2354L81.5449 93H79.1523L82.7207 83.1973H85.3389L88.8252 93ZM85.2158 89.124L84.1631 85.8291C84.0856 85.583 84.0309 85.2891 83.999 84.9473H83.9443C83.9215 85.2344 83.8646 85.5192 83.7734 85.8018L82.707 89.124H85.2158ZM101.219 93H99.0381V87.1348C99.0381 86.5013 99.0654 85.8018 99.1201 85.0361H99.0654C98.9515 85.6377 98.849 86.0706 98.7578 86.335L96.4609 93H94.6562L92.3184 86.4033C92.2546 86.2256 92.152 85.7699 92.0107 85.0361H91.9492C92.0085 86.0023 92.0381 86.8499 92.0381 87.5791V93H90.0488V83.1973H93.2822L95.2852 89.0078C95.4447 89.4727 95.5609 89.9398 95.6338 90.4092H95.6748C95.7979 89.8669 95.9277 89.3952 96.0645 88.9941L98.0674 83.1973H101.219V93ZM109.326 93H103.447V83.1973H109.101V84.9951H105.655V87.1758H108.861V88.9668H105.655V91.209H109.326V93Z" fill="#333333"/>
<path d="M57.9531 10.4674L59.1684 5.93173C59.4543 4.8648 60.551 4.23163 61.6179 4.51752L87.0679 11.3368C88.1348 11.6227 88.768 12.7194 88.4821 13.7863L78.7012 50.289C78.4154 51.356 77.3187 51.9891 76.2518 51.7033L59.357 47.1763" stroke="#0C8390" stroke-width="2"/>
<path d="M76.324 12.3764L84.0514 14.447" stroke="#6C496C" stroke-width="1.5" stroke-linecap="round"/>
<path d="M82.8103 20.5923L60.8196 14.6999" stroke="#6C496C" stroke-width="1.5" stroke-linecap="round"/>
<path d="M80.9455 26.038L65.4907 21.8969" stroke="#6C496C" stroke-width="1.5" stroke-linecap="round"/>
<path d="M79.7043 32.1834L60.0938 26.9288" stroke="#6C496C" stroke-width="1.5" stroke-linecap="round"/>
<path d="M78.2181 37.7305L59.97 32.8409" stroke="#6C496C" stroke-width="1.5" stroke-linecap="round"/>
<path d="M76.6652 43.5261L60.9998 39.3286" stroke="#6C496C" stroke-width="1.5" stroke-linecap="round"/>
<rect x="43" y="52" width="12" height="2" rx="1" fill="white"/>
<rect x="43" y="10" width="12" height="1" rx="0.5" fill="white"/>
<path d="M56.3897 8H38.6103C36.6174 8 35 9.61398 35 11.6104V54.3896C35 56.3825 36.6139 58 38.6103 58H56.3897C58.3826 58 60 56.386 60 54.3914V11.6104C60 10.6529 59.6196 9.73454 58.9426 9.05746C58.2655 8.38038 57.3472 8 56.3897 8ZM45.6975 11.9718H49.3043C49.4797 11.9718 49.6253 12.1121 49.6253 12.2876C49.6253 12.463 49.4797 12.6033 49.3025 12.6033H45.6975C45.5221 12.6033 45.3782 12.463 45.3782 12.2876C45.3782 12.1121 45.5186 11.9718 45.694 11.9718H45.6975ZM43.1801 11.6104C43.3476 11.6104 43.5083 11.6769 43.6267 11.7954C43.7451 11.9138 43.8117 12.0745 43.8117 12.242C43.8117 12.4095 43.7451 12.5701 43.6267 12.6885C43.5083 12.807 43.3476 12.8735 43.1801 12.8735C43.0126 12.8735 42.852 12.807 42.7336 12.6885C42.6151 12.5701 42.5486 12.4095 42.5486 12.242C42.5486 12.0745 42.6151 11.9138 42.7336 11.7954C42.852 11.6769 43.0126 11.6104 43.1801 11.6104ZM47.5009 56.1966C47.1691 56.1966 46.8407 56.1312 46.5342 56.0043C46.2277 55.8773 45.9492 55.6912 45.7146 55.4566C45.4801 55.2221 45.294 54.9436 45.167 54.6371C45.0401 54.3306 44.9747 54.0021 44.9747 53.6703C44.9747 53.3386 45.0401 53.0101 45.167 52.7036C45.294 52.3971 45.4801 52.1186 45.7146 51.884C45.9492 51.6494 46.2277 51.4634 46.5342 51.3364C46.8407 51.2094 47.1691 51.1441 47.5009 51.1441C48.1709 51.1441 48.8134 51.4103 49.2871 51.884C49.7609 52.3578 50.027 53.0003 50.027 53.6703C50.027 54.3403 49.7609 54.9829 49.2871 55.4566C48.8134 55.9304 48.1709 56.1966 47.5009 56.1966ZM58.6457 48.9722C58.6457 49.1159 58.5889 49.2537 58.4877 49.3556C58.3864 49.4575 58.249 49.5152 58.1054 49.5161H36.8946C36.751 49.5152 36.6136 49.4575 36.5123 49.3556C36.4111 49.2537 36.3543 49.1159 36.3543 48.9722V16.8453C36.3543 16.5471 36.5964 16.3015 36.8946 16.3015H58.1036C58.4019 16.3015 58.6475 16.5471 58.6475 16.8453L58.6457 48.9722Z" fill="#0C8390"/>
<path d="M42.3684 40C41.9921 40 41.6701 39.863 41.4023 39.5891C41.1341 39.3147 41 38.985 41 38.6V27.4C41 27.015 41.1341 26.6853 41.4023 26.4109C41.6701 26.137 41.9921 26 42.3684 26H47.8421L51.9474 30.2V32.37L46.4737 37.9525V40H42.3684ZM47.8421 40V38.5125L51.3658 34.89L52.8368 36.36L49.2961 40H47.8421ZM53.3329 35.87L51.8789 34.3825L52.3579 33.8925C52.4947 33.7525 52.6601 33.6825 52.8539 33.6825C53.0478 33.6825 53.2075 33.7525 53.3329 33.8925L53.8118 34.4C53.9373 34.54 54 34.7061 54 34.8984C54 35.0911 53.9373 35.2517 53.8118 35.38L53.3329 35.87ZM47.1579 30.9H50.5789L47.1579 27.4V30.9Z" fill="#6C496C"/>
</g>
<defs>
<clipPath id="clip0_404_2">
<rect width="120" height="100" fill="white"/>
</clipPath>
</defs>
</svg>
